HIERARCHY
ROOT Hips
{
    OFFSET   0.000000   0.000000   0.000000
    CHANNELS 6 Xposition Yposition Zposition Zrotation Xrotation Yrotation
    JOINT Chest
    {
        OFFSET   0.000000   8.007230   0.000000
        CHANNELS 3 Zrotation Xrotation Yrotation
        JOINT Chest2
        {
            OFFSET   0.000000  22.077100   0.000000
            CHANNELS 3 Zrotation Xrotation Yrotation
            JOINT Neck
            {
                OFFSET   0.000000  23.255100   0.000000
                CHANNELS 3 Zrotation Xrotation Yrotation
                JOINT Head
                {
                    OFFSET   0.000000  14.370100   1.956600
                    CHANNELS 3 Zrotation Xrotation Yrotation
                    End Site
                    {
                        OFFSET   0.000000  19.566000   0.000000
                    }
                }
            }
            JOINT LeftCollar
            {
                OFFSET   3.911900  19.017000  -0.467063
                CHANNELS 3 Zrotation Xrotation Yrotation
                JOINT LeftShoulder
                {
                    OFFSET  10.383700   0.000000   0.000000
                    CHANNELS 3 Zrotation Xrotation Yrotation
                    JOINT LeftElbow
                    {
                        OFFSET  26.662100   0.001193   0.000980
                        CHANNELS 3 Zrotation Xrotation Yrotation
                        JOINT LeftWrist
                        {
                            OFFSET  28.869000  -0.000059  -0.000082
                            CHANNELS 3 Zrotation Xrotation Yrotation
                            JOINT LeftFinger0
                            {
                                OFFSET   2.044650  -2.323450   3.252850
                                CHANNELS 3 Zrotation Xrotation Yrotation
                                JOINT LeftFinger01
                                {
                                    OFFSET   3.088130   0.000000   0.000000
                                    CHANNELS 3 Zrotation Xrotation Yrotation
                                    JOINT LeftFinger02
                                    {
                                        OFFSET   2.639460   0.000000   0.000000
                                        CHANNELS 3 Zrotation Xrotation Yrotation
                                        End Site
                                        {
                                            OFFSET   2.582190   0.000000   0.000000
                                        }
                                    }
                                }
                            }
                            JOINT LeftFinger1
                            {
                                OFFSET   8.364480   0.000000   3.252850
                                CHANNELS 3 Zrotation Xrotation Yrotation
                                JOINT LeftFinger11
                                {
                                    OFFSET   4.646930   0.000000   0.000000
                                    CHANNELS 3 Zrotation Xrotation Yrotation
                                    JOINT LeftFinger12
                                    {
                                        OFFSET   2.323470   0.000000   0.000000
                                        CHANNELS 3 Zrotation Xrotation Yrotation
                                        End Site
                                        {
                                            OFFSET   2.273050   0.000000   0.000000
                                        }
                                    }
                                }
                            }
                            JOINT LeftFinger2
                            {
                                OFFSET   8.364490   0.000016   1.078090
                                CHANNELS 3 Zrotation Xrotation Yrotation
                                JOINT LeftFinger21
                                {
                                    OFFSET   5.111610   0.000000   0.000000
                                    CHANNELS 3 Zrotation Xrotation Yrotation
                                    JOINT LeftFinger22
                                    {
                                        OFFSET   2.788150   0.000016   0.000000
                                        CHANNELS 3 Zrotation Xrotation Yrotation
                                        End Site
                                        {
                                            OFFSET   2.727660   0.000000   0.000000
                                        }
                                    }
                                }
                            }
                            JOINT LeftFinger3
                            {
                                OFFSET   7.899780   0.000015  -1.078090
                                CHANNELS 3 Zrotation Xrotation Yrotation
                                JOINT LeftFinger31
                                {
                                    OFFSET   4.646930   0.000000   0.000000
                                    CHANNELS 3 Zrotation Xrotation Yrotation
                                    JOINT LeftFinger32
                                    {
                                        OFFSET   2.323470   0.000000   0.000000
                                        CHANNELS 3 Zrotation Xrotation Yrotation
                                        End Site
                                        {
                                            OFFSET   2.273050   0.000000   0.000000
                                        }
                                    }
                                }
                            }
                            JOINT LeftFinger4
                            {
                                OFFSET   7.435090   0.000000  -3.252850
                                CHANNELS 3 Zrotation Xrotation Yrotation
                                JOINT LeftFinger41
                                {
                                    OFFSET   3.717550   0.000000   0.000000
                                    CHANNELS 3 Zrotation Xrotation Yrotation
                                    JOINT LeftFinger42
                                    {
                                        OFFSET   1.858770   0.000000   0.000000
                                        CHANNELS 3 Zrotation Xrotation Yrotation
                                        End Site
                                        {
                                            OFFSET   1.818440   0.000000   0.000000
                                        }
                                    }
                                }
                            }
                        }
                    }
                }
            }
            JOINT RightCollar
            {
                OFFSET  -3.911910  19.017000  -0.467062
                CHANNELS 3 Zrotation Xrotation Yrotation
                JOINT RightShoulder
                {
                    OFFSET -10.383700   0.000014   0.000000
                    CHANNELS 3 Zrotation Xrotation Yrotation
                    JOINT RightElbow
                    {
                        OFFSET -26.662100   0.001225   0.001091
                        CHANNELS 3 Zrotation Xrotation Yrotation
                        JOINT RightWrist
                        {
                            OFFSET -28.869000  -0.000020  -0.000085
                            CHANNELS 3 Zrotation Xrotation Yrotation
                            JOINT RightFinger0
                            {
                                OFFSET  -2.044650  -2.323490   3.252850
                                CHANNELS 3 Zrotation Xrotation Yrotation
                                JOINT RightFinger01
                                {
                                    OFFSET  -3.088130   0.000000   0.000000
                                    CHANNELS 3 Zrotation Xrotation Yrotation
                                    JOINT RightFinger02
                                    {
                                        OFFSET  -2.639460   0.000000   0.000000
                                        CHANNELS 3 Zrotation Xrotation Yrotation
                                        End Site
                                        {
                                            OFFSET  -2.582190   0.000000   0.000000
                                        }
                                    }
                                }
                            }
                            JOINT RightFinger1
                            {
                                OFFSET  -8.364480   0.000000   3.252850
                                CHANNELS 3 Zrotation Xrotation Yrotation
                                JOINT RightFinger11
                                {
                                    OFFSET  -4.646930   0.000000   0.000000
                                    CHANNELS 3 Zrotation Xrotation Yrotation
                                    JOINT RightFinger12
                                    {
                                        OFFSET  -2.323470   0.000000   0.000000
                                        CHANNELS 3 Zrotation Xrotation Yrotation
                                        End Site
                                        {
                                            OFFSET  -2.273050   0.000000   0.000000
                                        }
                                    }
                                }
                            }
                            JOINT RightFinger2
                            {
                                OFFSET  -8.364480   0.000000   1.078090
                                CHANNELS 3 Zrotation Xrotation Yrotation
                                JOINT RightFinger21
                                {
                                    OFFSET  -5.111620   0.000000   0.000000
                                    CHANNELS 3 Zrotation Xrotation Yrotation
                                    JOINT RightFinger22
                                    {
                                        OFFSET  -2.788160   0.000000   0.000000
                                        CHANNELS 3 Zrotation Xrotation Yrotation
                                        End Site
                                        {
                                            OFFSET  -2.727660   0.000000   0.000000
                                        }
                                    }
                                }
                            }
                            JOINT RightFinger3
                            {
                                OFFSET  -7.899780   0.000000  -1.078090
                                CHANNELS 3 Zrotation Xrotation Yrotation
                                JOINT RightFinger31
                                {
                                    OFFSET  -4.646930   0.000000   0.000000
                                    CHANNELS 3 Zrotation Xrotation Yrotation
                                    JOINT RightFinger32
                                    {
                                        OFFSET  -2.323470   0.000000   0.000000
                                        CHANNELS 3 Zrotation Xrotation Yrotation
                                        End Site
                                        {
                                            OFFSET  -2.273050   0.000000   0.000000
                                        }
                                    }
                                }
                            }
                            JOINT RightFinger4
                            {
                                OFFSET  -7.435090   0.000000  -3.252850
                                CHANNELS 3 Zrotation Xrotation Yrotation
                                JOINT RightFinger41
                                {
                                    OFFSET  -3.717550   0.000000   0.000000
                                    CHANNELS 3 Zrotation Xrotation Yrotation
                                    JOINT RightFinger42
                                    {
                                        OFFSET  -1.858760   0.000000   0.000000
                                        CHANNELS 3 Zrotation Xrotation Yrotation
                                        End Site
                                        {
                                            OFFSET  -1.818440   0.000000   0.000000
                                        }
                                    }
                                }
                            }
                        }
                    }
                }
            }
        }
    }
    JOINT LeftHip
    {
        OFFSET   9.783030   0.000000   0.000000
        CHANNELS 3 Zrotation Xrotation Yrotation
        JOINT LeftKnee
        {
            OFFSET   0.000063 -41.789100   0.000608
            CHANNELS 3 Zrotation Xrotation Yrotation
            JOINT LeftAnkle
            {
                OFFSET   0.000048 -41.133200  -0.000184
                CHANNELS 3 Zrotation Xrotation Yrotation
                JOINT LeftToe
                {
                    OFFSET   0.000000  -6.358960  14.674500
                    CHANNELS 3 Zrotation Xrotation Yrotation
                    End Site
                    {
                        OFFSET   0.000000   0.000000   3.913200
                    }
                }
            }
        }
    }
    JOINT RightHip
    {
        OFFSET  -9.783030   0.000000   0.000000
        CHANNELS 3 Zrotation Xrotation Yrotation
        JOINT RightKnee
        {
            OFFSET   0.000071 -41.789100   0.001239
            CHANNELS 3 Zrotation Xrotation Yrotation
            JOINT RightAnkle
            {
                OFFSET   0.000037 -41.133200  -0.000166
                CHANNELS 3 Zrotation Xrotation Yrotation
                JOINT RightToe
                {
                    OFFSET   0.000000  -6.358960  14.674500
                    CHANNELS 3 Zrotation Xrotation Yrotation
                    End Site
                    {
                        OFFSET   0.000000   0.000000   3.913200
                    }
                }
            }
        }
    }
}
MOTION
Frames: 4
Frame Time:   0.016667
 -0.076024  89.808800  -2.724090  -0.812086  -0.125811  -2.755470   0.245779   1.310960  -0.519194   0.503631   2.619620  -1.044420   1.144570  -1.596590   0.030021   1.886020  -3.233740   6.992970  -5.677050   0.380755   6.284250 -71.173900  15.529400   1.880120  -2.377170  -5.796590 -16.058600   6.873720  -9.544150   6.087970  41.582700  33.298200 -70.268900 -25.359700   0.010163   0.004897  -7.689580   0.002637   0.001267 -32.041800   3.968370  -6.309710 -26.395100  -0.002484  -0.001604 -18.476500  -0.004073  -0.001132 -28.224100   3.188370  -5.916100 -35.008300  -0.001599   0.001468 -23.315500  -0.000824  -0.015150 -26.899900  -0.079280   0.156351 -26.899900  -0.006516   0.008136 -17.915400  -0.005299  -0.001166 -27.313500  -0.080483   0.155882 -40.970400  -0.004690   0.000088 -27.286300   0.001137  -0.011313   9.192810   3.300080   7.867000  66.054300   8.706290  -1.778880   1.014140  -3.153410  12.420900 -15.637000 -20.759800  -4.362230 -40.335500  35.494000  77.922600  20.507300   0.002755  -0.000963   5.253630   0.001984   0.001928  30.492400   1.665260   2.825210  24.981900   0.003762  -0.002102  17.487300  -0.004080  -0.002673  27.746800  -0.637987  -1.212570  30.522000  -0.000562   0.002027  20.327600  -0.003172   0.003358  27.698400  -1.895110  -3.604460  30.546700   0.000000   0.002089  20.344100  -0.011150   0.001859  31.393200  -2.703610  -4.419950  47.246300  -0.005334   0.013180  31.466000  -0.002911   0.000860   1.605050  -0.805408   3.737780   0.431802   1.732020  14.383000  -5.019300  -2.228970   5.057120   0.000000   0.000000  -0.000000   1.173780  -2.814960  -5.136730  -1.665410   5.977640 -10.657300  -5.698220  -0.774916   1.819310  -0.000000   0.000000  -0.000000
 -0.076110  89.810100  -2.720660  -0.816842  -0.146939  -2.776950   0.245844   1.329650  -0.519223   0.503938   2.656990  -1.044520   1.144530  -1.584800   0.030057   1.884880  -3.209850   7.005330  -5.677390   0.380740   6.284250 -71.164900  15.544300   1.871070  -2.382720  -5.791320 -16.062500   6.870640  -9.531330   6.082760  41.563700  33.281700 -70.273600 -25.361600   0.010160   0.004874  -7.689870   0.002637   0.001266 -32.064700   3.977510  -6.318540 -26.414600  -0.002479  -0.001601 -18.490100  -0.004076  -0.001131 -28.227100   3.198790  -5.934530 -35.046900  -0.001596   0.001472 -23.341300  -0.000826  -0.015149 -26.925500  -0.068728   0.135340 -26.925800  -0.006513   0.008138 -17.932700  -0.005297  -0.001164 -27.332300  -0.068990   0.133473 -40.998600  -0.004689   0.000091 -27.305100   0.001141  -0.011318   9.194260   3.299760   7.867010  66.028800   8.729430  -1.752510   1.013930  -3.138760  12.473300 -15.643800 -20.775900  -4.378210 -40.317700  35.484600  77.923300  20.564300   0.002752  -0.000973   5.282160   0.001984   0.001916  30.509400   1.658270   2.812750  24.995500   0.003767  -0.002105  17.496900  -0.004080  -0.002673  27.750800  -0.653341  -1.241510  30.546300  -0.000560   0.002028  20.343800  -0.003173   0.003360  27.701700  -1.907800  -3.627690  30.570200   0.000000   0.002093  20.359700  -0.011151   0.001861  31.407300  -2.709690  -4.426500  47.268000  -0.005332   0.013181  31.480500  -0.002912   0.000859   1.607240  -0.780187   3.742470   0.430722   1.735120  14.394300  -5.019390  -2.230250   5.057120   0.000000   0.000000   0.000000   1.167620  -2.792550  -5.120390  -1.652990   5.975560 -10.666100  -5.698590  -0.756746   1.830530   0.000000   0.000000   0.000000
 -0.076253  89.813400  -2.714340  -0.824845  -0.182895  -2.812400   0.245920   1.361040  -0.519409   0.504389   2.719750  -1.045080   1.144470  -1.565100   0.030093   1.883000  -3.170070   7.025680  -5.677710   0.380635   6.284280 -71.150600  15.569000   1.855460  -2.392070  -5.780330 -16.073300   6.860230  -9.518740   6.064760  41.537400  33.262600 -70.280300 -25.365900   0.010147   0.004850  -7.690170   0.002637   0.001265 -32.098700   3.990420  -6.330600 -26.443300  -0.002466  -0.001594 -18.510300  -0.004083  -0.001127 -28.231600   3.215920  -5.964920 -35.107100  -0.001587   0.001480 -23.381400  -0.000832  -0.015148 -26.962400  -0.058176   0.114329 -26.962700  -0.006505   0.008144 -17.957200  -0.005289  -0.001158 -27.361300  -0.057498   0.111063 -41.042000  -0.004684   0.000100 -27.334000   0.001150  -0.011329   9.198490   3.297510   7.867040  65.986100   8.771790  -1.704610   1.013460  -3.116370  12.552200 -15.655200 -20.796000  -4.405920 -40.280900  35.475200  77.924000  20.635100   0.002742  -0.000982   5.317560   0.001984   0.001904  30.542100   1.651280   2.796120  25.021900   0.003782  -0.002108  17.515400  -0.004082  -0.002673  27.758400  -0.674586  -1.281460  30.591100  -0.000554   0.002033  20.373700  -0.003178   0.003364  27.709000  -1.920480  -3.650910  30.615200   0.000000   0.002102  20.389700  -0.011156   0.001867  31.431700  -2.715770  -4.433050  47.305200  -0.005331   0.013184  31.505300  -0.002915   0.000855   1.612040  -0.737172   3.749710   0.428959   1.739860  14.413700  -5.019420  -2.234000   5.057130   0.000000   0.000000  -0.000000   1.158770  -2.753440  -5.099950  -1.632470   5.969610 -10.686000  -5.699230  -0.721276   1.859640  -0.000000   0.000000   0.000000
 -0.076351  89.818100  -2.708540  -0.831263  -0.213264  -2.840000   0.245980   1.386510  -0.520244   0.504771   2.770710  -1.046930   1.144440  -1.549600   0.030043   1.881430  -3.139150   7.045290  -5.675950   0.379681   6.288110 -71.139300  15.586700   1.842580  -2.399300  -5.763070 -16.090900   6.834630  -9.530090   6.030900  41.528700  33.260700 -70.283400 -25.373800   0.010125   0.004872  -7.690090   0.002614   0.001276 -32.118100   3.993410  -6.332820 -26.459100  -0.002451  -0.001582 -18.522800  -0.004091  -0.001119 -28.234600   3.226400  -5.983430 -35.146000  -0.001571   0.001492 -23.407300  -0.000841  -0.015146 -26.979600  -0.059309   0.116510 -26.977800  -0.006493   0.008152 -17.967200  -0.005278  -0.001149 -27.379000  -0.063130   0.119817 -41.068600  -0.004676   0.000113 -27.351700   0.001165  -0.011349   9.205380   3.291370   7.871260  65.950300   8.814900  -1.654650   1.006820  -3.100110  12.597000 -15.651600 -20.800300  -4.436940 -40.249900  35.479400  77.936500  20.651100   0.002726  -0.000972   5.325550   0.001984   0.001909  30.580900   1.651500   2.791240  25.053800   0.003808  -0.002109  17.537700  -0.004087  -0.002681  27.765900  -0.682800  -1.296510  30.633700  -0.000543   0.002045  20.402100  -0.003186   0.003370  27.717400  -1.919480  -3.648660  30.661300   0.000000   0.002112  20.420400  -0.011166   0.001873  31.450100  -2.715020  -4.430110  47.332800  -0.005331   0.013191  31.523600  -0.002921   0.000848   1.618390  -0.701940   3.753760   0.425914   1.743340  14.431000  -5.019140  -2.240490   5.061080  -0.000000   0.000000   0.000000   1.154810  -2.721150  -5.095770  -1.616510   5.962180 -10.712100  -5.699760  -0.681108   1.905740  -0.000000   0.000000   0.000000
